<svg width="767" height="767" viewBox="0 0 767 767" fill="none" xmlns="http://www.w3.org/2000/svg">
<path d="M573.17 343.86H245.19C230.11 343.86 217.89 356.08 217.89 371.16V390.63H600.47V371.16C600.47 356.08 588.25 343.86 573.17 343.86Z" fill="#F7B32B"/>
<path d="M217.89 541.78C217.89 556.86 230.11 569.08 245.19 569.08H573.17C588.25 569.08 600.47 556.86 600.47 541.78V418.18H217.89V541.78Z" fill="#F7B32B"/>
<path d="M140.92 367.69L184.1 483.5C187.44 492.45 194.98 498.58 203.64 500.55V371.15C203.64 357.73 210.06 345.81 219.97 338.21L140.92 367.68V367.69ZM766.95 713.07L679.06 625.18C733.2 559.13 765.74 474.74 765.74 382.87C765.74 171.76 593.99 0 382.87 0C171.75 0 0 171.75 0 382.87C0 593.99 171.75 765.74 382.87 765.74C474.74 765.74 559.13 733.19 625.18 679.06L713.07 766.95L766.95 713.07ZM76.19 382.86C76.19 213.75 213.76 76.18 382.87 76.18C551.98 76.18 689.55 213.75 689.55 382.86C689.55 551.97 551.98 689.54 382.87 689.54C213.76 689.54 76.19 551.97 76.19 382.86ZM482.96 189.97C477.69 175.84 461.97 168.66 447.85 173.93L140.53 288.51C126.4 293.78 119.22 309.5 124.49 323.62L131.29 341.86L489.76 208.21L482.96 189.97ZM245.18 329.61H535.02L499.39 234.03L242.71 329.73C243.53 329.68 244.35 329.6 245.19 329.6L245.18 329.61Z" fill="url(#paint0_linear_2_21)"/>
<defs>
<linearGradient id="paint0_linear_2_21" x1="0.01" y1="383.47" x2="766.95" y2="383.47" gradientUnits="userSpaceOnUse">
<stop offset="0.01" stop-color="#1EB580"/>
<stop offset="1" stop-color="#0081E6"/>
</linearGradient>
</defs>
</svg>
