<?xml version="1.0" encoding="UTF-8"?>
<svg id="_レイヤー_1" data-name="レイヤー_1" xmlns="http://www.w3.org/2000/svg" xmlns:xlink="http://www.w3.org/1999/xlink" version="1.1" viewBox="190 470 1620 1060">
  <!-- Generator: Adobe Illustrator 30.2.1, SVG Export Plug-In . SVG Version: 2.1.1 Build 1)  -->
  <defs>
    <style>
      .st0 {
        fill: #3f3f3f;
      }

      .st1 {
        fill: #f7b32b;
      }

      .st2 {
        fill: url(#_名称未設定グラデーション_39);
      }
    </style>
    <linearGradient id="_名称未設定グラデーション_39" data-name="名称未設定グラデーション 39" x1="619.7" y1="883.29" x2="1386.64" y2="883.29" gradientUnits="userSpaceOnUse">
      <stop offset=".01" stop-color="#1eb580"/>
      <stop offset="1" stop-color="#0081e6"/>
    </linearGradient>
  </defs>
  <g>
    <path class="st1" d="M1192.86,843.68h-327.98c-15.08,0-27.3,12.22-27.3,27.3v19.47h382.58v-19.47c0-15.08-12.22-27.3-27.3-27.3Z"/>
    <path class="st1" d="M837.58,1041.6c0,15.08,12.22,27.3,27.3,27.3h327.98c15.08,0,27.3-12.22,27.3-27.3v-123.6h-382.58v123.6Z"/>
  </g>
  <path class="st2" d="M760.61,867.51l43.18,115.81c3.34,8.95,10.88,15.08,19.54,17.05v-129.4c0-13.42,6.42-25.34,16.33-32.94l-79.05,29.47ZM1386.64,1212.89l-87.89-87.89c54.14-66.05,86.68-150.44,86.68-242.31,0-211.11-171.75-382.87-382.87-382.87s-382.87,171.75-382.87,382.87,171.75,382.87,382.87,382.87c91.87,0,176.26-32.55,242.31-86.68l87.89,87.89,53.87-53.87ZM695.88,882.68c0-169.11,137.57-306.68,306.68-306.68s306.68,137.57,306.68,306.68-137.57,306.68-306.68,306.68-306.68-137.57-306.68-306.68ZM1102.65,689.79c-5.27-14.13-20.99-21.31-35.11-16.04l-307.32,114.58c-14.13,5.27-21.31,20.99-16.04,35.11l6.8,18.24,358.47-133.65-6.8-18.24ZM864.87,829.43h289.84l-35.63-95.58-256.68,95.7c.82-.05,1.64-.13,2.48-.13Z"/>
  <g>
    <path class="st0" d="M219.26,1382.22c3.77.63,6.75.79,12.56.79h29.66c6.43,0,9.1-.16,12.56-.63v15.22c-3.45-.32-5.65-.47-11.93-.47h-30.29c-5.49,0-8.79.16-12.56.63v-15.54ZM224.29,1500.56c.47-4.87.78-10.2.78-15.38v-22.91c0-5.34-.16-8.48-.63-12.4,3.61.47,6.59.63,12.24.63h24.48c5.65,0,8.32-.16,10.67-.47-.32,3.14-.47,5.49-.47,11.46v24.64c0,6.12.16,8.79.63,12.4h-15.38v-5.34h-16.48v7.38h-15.85ZM224.44,1360.25c3.92.63,6.43.78,12.71.78h21.5c6.12,0,8.63-.16,12.71-.78v14.44c-4.24-.47-7.06-.63-12.71-.63h-21.5c-5.49,0-8.79.16-12.71.63v-14.44ZM224.76,1406.07c2.98.32,5.02.47,9.89.47h26.52c5.02,0,6.9-.16,9.57-.47v13.81c-2.98-.31-5.02-.47-9.57-.47h-26.52c-4.87,0-6.91.16-9.89.47v-13.81ZM224.76,1428.05c2.82.31,5.18.47,9.89.47h26.37c5.02,0,7.06-.16,9.73-.47v13.81c-2.83-.31-5.02-.47-9.89-.47h-26.37c-4.71,0-6.75.16-9.73.47v-13.81ZM240.14,1479.37h16.48v-15.22h-16.48v15.22ZM293.34,1379.86c-7.85,0-10.67.16-14.91.63v-13.97c4.55.79,7.38.94,14.91.94h16.01c0-5.34-.16-7.69-.94-11.62h18.05c-.79,3.93-.94,5.96-.94,11.62h19.93c7.85,0,10.67-.16,15.22-.94v13.97c-4.08-.47-7.85-.63-15.22-.63h-19.93v6.59h16.64c6.59,0,9.26-.16,13.03-.63v13.5c-4.24-.47-6.75-.63-13.34-.63h-16.32v6.44h22.6c7.53,0,10.99-.16,15.54-.94v14.75c-4.71-.79-8.32-.94-15.54-.94h-56.81c-7.53,0-10.99.16-15.85.94v-14.75c3.61.79,7.69.94,15.85.94h18.05v-6.44h-13.81c-6.12,0-8.95.16-13.18.63v-13.5c4.08.47,7.06.63,13.34.63h13.65v-6.59h-16.01ZM297.58,1483.29c0,7.53.31,13.34.94,17.89h-17.73c.78-4.71.94-8.79.94-17.89v-46.3c0-5.81-.16-8.95-.47-13.34,4.08.32,6.75.47,12.56.47h46.77c7.22,0,10.52-.16,14.13-.63-.47,4.08-.63,8.63-.63,16.17v45.2c0,12.24-3.92,15.22-19.78,15.22-4.87,0-7.53-.16-12.71-.47-.94-6.75-1.73-9.89-3.77-15.22,4.55.78,11.77,1.41,15.22,1.41,4.24,0,5.18-.79,5.18-4.55v-5.34h-40.65v7.38ZM338.23,1444.21v-6.75h-40.65v6.75h40.65ZM338.23,1463.2v-6.43h-40.65v6.43h40.65Z"/>
    <path class="st0" d="M456.71,1398.07c3.45,11.46,7.22,19.93,13.65,29.98,9.57-7.53,18.52-17.11,24.01-25.74l14.44,10.99q-1.57,1.57-9.26,9.73c-5.49,5.49-11.61,10.99-20.09,17.73,4.24,5.18,8.16,9.26,13.97,14.28,8.63,7.69,13.5,10.99,26.99,18.52-5.02,5.49-8.16,9.73-11.77,16.17-15.22-10.51-23.86-18.05-32.64-28.41-9.89-11.61-14.44-18.83-20.56-32.49.31,7.22.63,16.17.63,22.92v33.11c0,11.46-4.55,14.91-19.46,14.91-6.12,0-12.71-.31-19.78-.79-.79-7.06-1.57-9.89-4.24-16.95,7.85,1.41,14.28,2.04,20.56,2.04,4.87,0,5.96-.94,5.96-5.18v-80.83h-43.47c-6.9,0-12.24.31-17.11.94v-17.26c4.71.63,9.89.94,18.05.94h42.53v-8.95c0-7.85-.31-12.56-.94-17.11h18.83c-.63,4.87-.94,9.57-.94,17.26v8.79h26.68c-5.34-7.06-8.63-10.52-16.64-17.26l12.24-9.1q10.51,9.1,19.46,19.3l-9.42,7.06h10.83c8,0,13.18-.31,18.05-.94v17.26c-4.87-.63-10.04-.94-18.05-.94h-42.53ZM437.4,1453c-15.22,11.3-18.2,13.18-41.12,26.68-3.93,2.35-5.96,3.61-8.79,5.65l-8.32-17.74c6.75-2.2,13.03-5.18,23.07-10.67,11.93-6.75,18.68-11.14,29.51-19.62l5.65,15.7ZM404.29,1402.15c9.1,9.57,14.44,16.48,21.66,27.47l-14.75,10.52c-6.12-11.14-12.4-19.62-20.4-27.94l13.5-10.04Z"/>
    <path class="st0" d="M595.59,1376.41h-32.33c-7.06,0-11.3.16-15.38.63v-13.81c4.55.63,9.89.94,17.26.94h30.45c-.16-4.08-.31-5.02-.94-8.63h18.36c-.78,3.14-.94,4.4-1.1,8.63h31.55c7.85,0,12.87-.16,17.26-.63-.31,2.83-.47,5.96-.47,13.34v4.55h1.26c6.59,0,10.04-.16,14.28-.79v13.65c-3.77-.63-7.69-.79-14.75-.79h-.79v6.12c0,4.87.16,9.26.47,11.14-4.55-.31-9.26-.47-16.32-.47h-32.49v4.87h37.35c8,0,11.93-.16,16.32-.63v13.18c-4.71-.63-8.95-.79-16.32-.79h-37.35v5.02h45.36c8.01,0,13.5-.31,18.05-.94v14.6c-5.34-.63-11.46-.94-18.05-.94h-105.78c-6.9,0-12.71.31-18.2.94v-14.6c4.55.63,10.51.94,18.2.94h44.1v-5.02h-35.47c-7.38,0-11.77.16-16.32.79v-13.18c4.55.47,8.48.63,16.32.63h35.47v-4.87h-32.33c-7.06,0-11.14.16-15.54.63v-12.87c4.24.47,8.32.63,15.54.63h32.33v-5.18h-44.26c-8,0-12.71.16-18.05.79v-13.65c4.87.47,10.2.79,18.05.79h44.26v-5.02ZM551.8,1464.46c0-8.95-.16-11.61-.47-15.38,3.92.31,6.28.31,16.64.31h73.29c10.51,0,13.18,0,16.79-.31-.47,3.29-.63,6.9-.63,15.38v20.25c0,8.16.31,12.71.94,16.32h-17.42v-5.34h-72.82v5.34h-17.11c.47-4.55.78-9.26.78-16.17v-20.4ZM568.12,1466.97h72.82v-5.81h-72.82v5.81ZM568.12,1483.6h72.82v-5.81h-72.82v5.81ZM644.24,1376.41h-32.33v5.02h32.33v-5.02ZM611.91,1393.52v5.18h32.33v-5.18h-32.33Z"/>
    <path class="st0" d="M821.57,1395.71c-1.26,2.82-1.57,5.02-1.73,10.51-.47,17.74-2.2,41.91-3.77,52.26-4.08,27.15-9.57,33.59-28.41,33.59-5.96,0-11.3-.47-19.46-1.73-.31-9.89-.79-12.87-3.61-20.09,9.26,2.51,15.54,3.61,20.72,3.61,6.75,0,9.1-3.45,11.61-17.11,1.88-10.83,3.45-32.17,3.45-50.22l-36.57.16c-2.2,19.62-5.49,31.39-12.56,44.89-8.63,16.64-22.6,30.92-42.37,43.47-5.34-8.32-7.53-10.83-14.13-16.64,19.62-10.36,32.49-22.76,40.81-39.55,4.24-8.63,6.59-16.32,8-27.31.31-2.2.63-3.77.79-4.87l-26.05.16c-9.57,0-11.77.16-16.95.79l-.16-19.31c5.34.94,9.57,1.26,17.42,1.26l27.47-.16c.47-5.96.79-15.07.79-19.62v-3.93c0-2.04,0-3.29-.47-6.12l21.03.47c-.31,2.04-.47,2.67-.63,4.87,0,.94-.16,1.88-.16,2.98q-.32,3.3-.63,11.46c-.16,3.45-.16,4.87-.63,9.89l34.84-.16c7.06,0,8.48-.16,12.4-1.41l8.95,7.85Z"/>
    <path class="st0" d="M851.07,1417.37c6.9.94,9.89,1.1,25.42,1.1h83.65c15.54,0,18.52-.16,25.42-1.1v21.82c-6.28-.79-8-.79-25.58-.79h-83.34c-17.58,0-19.3,0-25.58.79v-21.82Z"/>
    <path class="st0" d="M1035.78,1495.53c.63-4.4.94-8.63.94-17.58v-100.6c-.16-9.1-.31-12.24-.94-16.01h21.5c-.47,4.24-.63,7.22-.63,16.48v29.19c18.2,5.96,46.46,19.15,71.25,33.12l-10.98,18.52c-10.99-7.85-33.27-19.93-55.56-29.98-3.61-1.73-4.08-1.88-5.34-2.67.47,4.4.63,7.06.63,10.67v41.43c0,8.47.16,12.87.63,17.42h-21.5ZM1100.44,1369.5c6.91,7.38,11.14,13.34,16.48,23.07l-10.99,5.81c-5.18-9.57-9.57-15.85-16.48-23.38l10.98-5.49ZM1124.76,1388.49c-4.71-8.63-9.89-16.01-16.01-22.76l10.52-5.49c7.06,7.22,11.46,13.18,16.32,22.13l-10.83,6.12Z"/>
    <path class="st0" d="M1209.03,1386.46c4.71,0,7.22-.16,11.46-.63v16.32c-4.24-.47-7.53-.63-11.46-.63h-7.38v24.33c5.65-1.73,8.32-2.67,18.05-5.96l.47,15.23c-3.92,1.41-10.04,3.61-18.52,6.43v44.26c0,11.46-5.18,14.91-21.81,14.91-3.3,0-7.06-.16-12.4-.47-.47-6.59-1.26-10.04-3.61-16.95,6.59.94,11.61,1.26,16.32,1.26,3.77,0,4.71-.94,4.71-4.55v-32.96c-2.83.94-4.71,1.41-11.14,3.3-5.02,1.41-6.75,1.88-8.48,2.67l-3.3-17.73c5.81-.47,10.04-1.41,22.92-4.71v-29.03h-8.95c-4.08,0-8.16.31-12.09.78v-16.79c4.08.63,7.69.94,12.24.94h8.79v-12.87c0-7.06-.16-11.14-.94-16.01h18.68c-.63,4.71-.94,8.79-.94,15.85v13.03h7.38ZM1288.6,1499.93c-1.73-6.9-2.2-8.79-3.77-14.59-21.19,4.24-34.84,6.59-56.97,9.57-8.79,1.26-13.18,1.88-16.95,2.82l-3.3-19.3c1.1.16,1.73.16,2.51.16.63,0,3.77-.16,9.1-.63,13.5-40.81,25.27-94.64,25.9-118.96l20.09,3.14c-.79,3.61-1.57,7.38-8.48,41.12-4.55,22.29-13.18,56.34-18.83,73.14,21.03-2.35,26.05-3.14,42.22-6.12-5.65-16.48-11.14-30.13-18.05-43.32l15.22-6.28c11.46,22.91,19.62,43.47,28.56,72.04l-17.26,7.22Z"/>
    <path class="st0" d="M1349.01,1373.11c-.78,5.81-1.25,13.5-1.25,23.86,0,13.65,1.25,32.49,2.98,42.06,2.67,16.32,7.69,26.37,12.71,26.37,2.35,0,4.55-2.35,6.43-6.75,3.77-8.47,6.59-17.89,8.32-28.41,5.49,6.28,8,8.63,15.69,14.28-8.16,30.6-17.26,43.32-30.6,43.32-10.51,0-18.99-7.69-25.27-22.76-6.43-15.69-9.26-38.45-9.89-81.92-.16-5.49-.16-6.59-.63-10.04h21.5ZM1423.25,1380.18c19.77,23.7,30.76,49.91,35.31,84.44l-19.46,7.38c-.94-14.75-4.55-31.08-10.04-45.36-5.34-14.28-12.87-27-22.29-38.61l16.48-7.85Z"/>
    <path class="st0" d="M1591.48,1399.17c10.98,0,14.28-.16,20.4-1.1v19.78c-5.65-.63-9.73-.79-20.09-.79h-32.17c-1.41,21.81-4.08,32.17-11.3,44.26-8.63,14.28-19.62,24.01-40.02,35.16-5.34-8.95-7.69-11.77-14.28-16.95,18.83-8.16,30.76-17.89,37.82-30.92,4.71-8.47,6.43-15.54,7.69-31.55h-38.92c-10.36,0-14.44.16-20.09.79v-19.78c6.12.94,9.57,1.1,20.4,1.1h39.55c.16-6.59.16-9.42.16-12.24v-9.26c0-6.75-.16-10.83-.78-15.07h21.66c-.63,5.02-.63,5.18-.79,15.07l-.16,9.42q-.16,10.36-.16,12.09h31.08Z"/>
    <path class="st0" d="M1671.5,1413.29c23.7-4.39,58.38-18.36,68.59-27.94l12.56,17.73c-1.1.47-5.81,2.67-14.12,6.75-21.34,10.2-43.32,17.26-67.02,21.66v20.72c-.16.79-.16,1.57-.16,2.04,0,9.1.63,12.71,2.83,14.91,2.67,2.82,11.61,4.08,26.84,4.08,10.51,0,24.95-.94,36.41-2.51,7.53-.94,10.99-1.73,17.89-3.77l.94,20.87c-3.3,0-4.08.16-20.72,1.73-9.26.94-29.03,1.88-38.61,1.88-19.78,0-30.61-2.04-36.73-6.75-4.39-3.3-6.75-8.32-7.69-16.01-.31-2.67-.47-5.34-.47-14.44l-.16-72.82c0-8.01,0-10.52-.63-14.44h21.03c-.63,3.77-.79,6.59-.79,14.6v31.7ZM1746.05,1359.62c6.28,7.06,10.51,13.5,15.69,23.86l-11.3,5.18c-4.87-10.04-8.95-16.32-15.54-24.01l11.14-5.02ZM1769.59,1379.55c-4.24-8.63-9.1-16.17-15.07-23.38l10.83-5.02c6.91,7.85,11.14,13.97,15.38,22.76l-11.14,5.65Z"/>
  </g>
</svg>